<svg xmlns="http://www.w3.org/2000/svg" xmlns:xlink="http://www.w3.org/1999/xlink" xml:space="preserve" version="1.1" style="shape-rendering:geometricPrecision;text-rendering:geometricPrecision;image-rendering:optimizeQuality;" viewBox="0 0 11121 15272.5" x="0px" y="0px" fill-rule="evenodd" clip-rule="evenodd"><defs><style type="text/css">
   
    .fil0 {fill:black;fill-rule:nonzero}
   
  </style></defs><g><path class="fil0" d="M5561 0c813,0 1530,715 2031,1871 71,165 139,339 201,521 192,-30 378,-53 557,-67 1255,-100 2223,198 2605,917 382,718 87,1687 -698,2671 -52,65 -106,131 -162,196 56,66 111,131 162,196 785,984 1080,1953 698,2671 -382,719 -1350,1017 -2605,917 -179,-14 -365,-36 -557,-67 -62,183 -130,357 -201,521 -501,1156 -1218,1871 -2031,1871 -814,0 -1531,-715 -2032,-1871 -71,-164 -139,-338 -201,-521 -192,31 -378,53 -557,67 -1255,100 -2223,-198 -2605,-917 -382,-718 -87,-1687 698,-2671 52,-65 106,-130 162,-196 -56,-65 -110,-131 -162,-196 -785,-984 -1080,-1953 -698,-2671 382,-719 1350,-1017 2605,-917 179,14 365,37 557,67 62,-182 130,-356 201,-521 501,-1156 1218,-1871 2032,-1871zm4179 6494c-415,422 -914,841 -1480,1237 -70,569 -176,1104 -311,1592 151,23 299,40 442,51 1045,83 1828,-124 2104,-642 275,-518 8,-1284 -645,-2103 -35,-45 -72,-90 -110,-135zm-8359 -770c415,-422 914,-841 1480,-1237 70,-569 176,-1104 311,-1592 -151,-22 -299,-39 -442,-51 -1045,-83 -1828,125 -2104,642 -275,518 -8,1284 645,2103 36,45 72,90 110,135zm351 385c307,314 664,627 1064,931 -21,-304 -32,-615 -32,-931 0,-316 11,-627 32,-930 -400,303 -757,616 -1064,930zm1620 1327c355,239 737,468 1140,682 358,190 716,360 1069,508 352,-148 710,-317 1067,-508l1 0c403,-214 785,-443 1140,-682 44,-425 67,-869 67,-1327 0,-457 -23,-902 -67,-1327 -355,-238 -737,-467 -1140,-682 -358,-190 -716,-360 -1068,-508 -353,148 -711,318 -1068,508l-1 0c-403,215 -785,444 -1140,682 -44,425 -67,870 -67,1327 0,458 23,902 67,1327zm2895 1455c410,143 809,256 1189,338 98,-347 180,-720 244,-1115 -258,160 -528,316 -807,464l0 0c-209,111 -418,216 -626,313zm3142 -2782c-306,-314 -663,-627 -1063,-930 20,303 31,614 31,930 0,316 -11,627 -31,931 400,-304 757,-617 1063,-931zm-4515 -2782c-410,-143 -809,-256 -1189,-338 -98,347 -180,721 -244,1116 258,-161 528,-317 807,-465l0 0c209,-111 418,-215 626,-313zm-1031 -836c545,121 1124,301 1717,538 593,-237 1173,-417 1718,-538 -51,-145 -106,-283 -163,-415 -416,-960 -967,-1555 -1554,-1555 -588,0 -1139,595 -1555,1555 -57,132 -112,270 -163,415zm2404 836c208,98 417,202 626,313 279,148 549,304 807,465 -64,-395 -146,-769 -244,-1116 -380,82 -779,195 -1189,338zm2013 1160c566,396 1065,815 1480,1237 38,-45 75,-90 110,-135 653,-819 920,-1585 645,-2103 -276,-517 -1059,-725 -2104,-642 -143,12 -291,29 -442,51 135,488 241,1023 311,1592zm-982 5241c-545,-121 -1124,-301 -1717,-539 -593,238 -1173,418 -1718,539 51,144 106,282 163,414 416,961 967,1555 1555,1555 587,0 1138,-594 1554,-1555 57,-132 112,-270 163,-414zm-2404 -837c-208,-97 -417,-202 -626,-313 -279,-148 -549,-304 -807,-464 64,395 146,768 244,1115 380,-82 779,-195 1189,-338zm-2013 -1160c-566,-396 -1065,-815 -1480,-1237 -38,45 -74,90 -110,135 -653,819 -920,1585 -645,2103 276,518 1059,725 2104,642 143,-11 291,-28 442,-51 -135,-488 -241,-1023 -311,-1592zm2700 -3191c704,0 1274,116 1274,258 0,143 -570,259 -1274,259 -705,0 -1275,-116 -1275,-259 0,-142 570,-258 1275,-258zm1221 2289c35,24 53,49 53,75l0 516c0,142 -570,258 -1274,258 -705,0 -1275,-116 -1275,-258l0 -516c0,-26 18,-51 53,-75 158,107 645,184 1222,184 576,0 1063,-77 1221,-184zm0 -873c35,24 53,49 53,74l0 517c0,142 -570,258 -1274,258 -705,0 -1275,-116 -1275,-258l0 -517c0,-25 18,-50 53,-74 158,107 645,184 1222,184 576,0 1063,-77 1221,-184zm0 -873c35,23 53,48 53,74l0 516c0,143 -570,259 -1274,259 -705,0 -1275,-116 -1275,-259l0 -516c0,-26 18,-51 53,-74 158,106 645,184 1222,184 576,0 1063,-78 1221,-184z"/></g><text x="0" y="12233" fill="#000000" font-size="5px" font-weight="bold" font-family="'Helvetica Neue', Helvetica, Arial-Unicode, Arial, Sans-serif">Created by popcornarts</text><text x="0" y="12238" fill="#000000" font-size="5px" font-weight="bold" font-family="'Helvetica Neue', Helvetica, Arial-Unicode, Arial, Sans-serif">from the Noun Project</text></svg>